# xmcd CD database file
#
# Track frame offsets:
#	150
#	14840
#	28809
#	41694
#	54234
#	65171
#	82192
#	93169
#	104621
#	116044
#	127792
#	138682
#	148947
#	160297
#	171443
#	184102
#	196939
#	208395
#	221494
#	232980
#	246459
#	259768
#	272145
#	285110
#	297440
#
# Disc length: 4140 seconds
#
# Revision: 0
# Processed by: cddbd v1.5.2PL0 Copyright (c) Steve Scherf et al.
# Submitted via: CDex 1.70beta2
#
DISCID=90102a19
DTITLE=Artiste Varié - Festival d'accordéons Vol. 3
DYEAR=1900
DGENRE=Country
TTITLE0=Le reel Du Cultivateur
TTITLE1=La Valse Des Sorciers
TTITLE2=Contre-Danse Du Lac St-Jean 
TTITLE3=Reel De Sherbrooke
TTITLE4=Reel De St-Anne
TTITLE5=Le Continental
TTITLE6=Reel De La Honte
TTITLE7=Reel à Rejean
TTITLE8=Reel De Beauport
TTITLE9=Valse Madeleine
TTITLE10=Reel De La Bouteille
TTITLE11=Reel Des Ailes Rouges
TTITLE12=Reel De L'Érable
TTITLE13=Reel Des Beigne
TTITLE14=Reel Du Bourdon
TTITLE15=La Vieille Bastringue
TTITLE16=Le Salut
TTITLE17=Gigue À Rosaire
TTITLE18=Reel De Ste-Émilie
TTITLE19=Refrain Pour Accordéon
TTITLE20=Reel Du Cordonnier
TTITLE21=Rubber Dolly
TTITLE22=Reel Gaspésien
TTITLE23=Reel St-Joachin
TTITLE24=Reeel Des Robins
EXTD=
EXTT0=
EXTT1=
EXTT2=
EXTT3=
EXTT4=
EXTT5=
EXTT6=
EXTT7=
EXTT8=
EXTT9=
EXTT10=
EXTT11=
EXTT12=
EXTT13=
EXTT14=
EXTT15=
EXTT16=
EXTT17=
EXTT18=
EXTT19=
EXTT20=
EXTT21=
EXTT22=
EXTT23=
EXTT24=
PLAYORDER=
